<svg id="Layer_1" data-name="Layer 1" xmlns="http://www.w3.org/2000/svg" viewBox="0 0 167.07 193.11"><polygon points="167.07 48.13 83.7 0 0.17 48.42 0 144.98 83.36 193.11 166.9 144.68 167.07 48.13" fill="#001d43"/><path d="M126.34,59.17l-23.1,89H88.43l23.1-89h14.81m3-2.29H109.77L85.48,150.43H105l24.3-93.55Z" transform="translate(-16.21 -5.17)" fill="#34b0f0"/><path d="M64.69,117.68l-7.91,30.46H41.41l8.47-30.46H64.69m3-2.29H48.15l-9.74,35H58.54l9.1-35Z" transform="translate(-16.21 -5.17)" fill="#34b0f0"/><path d="M83.35,135.89l-7.91,30.46H60.08l8.47-30.46h14.8m3-2.29H66.82l-9.75,35H77.21l9.1-35Z" transform="translate(-16.21 -5.17)" fill="#34b0f0"/><path d="M153.76,68.41H135.34l7.31-9.79c.84-1.11,1.53-2.11,2.1-3a20.22,20.22,0,0,0,1.33-2.33,8.5,8.5,0,0,0,1-3.89,3,3,0,0,0-.45-1.74,1.43,1.43,0,0,0-1.23-.65q-1.74,0-1.74,3.27c0,.12,0,.26,0,.42s0,.35,0,.57h-7l0-1a9.22,9.22,0,0,1,2.49-6.65,8.55,8.55,0,0,1,6.43-2.61,8.21,8.21,0,0,1,6.17,2.48,8.56,8.56,0,0,1,2.41,6.31,12.34,12.34,0,0,1-1.65,6.09,21.49,21.49,0,0,1-2.16,3.11,36.25,36.25,0,0,1-3.21,3.41c1.09-.08,2.18-.14,3.28-.17s2.24,0,3.39,0Z" transform="translate(-16.21 -5.17)" fill="none" stroke="#34b0f0" stroke-miterlimit="10" stroke-width="2.5"/></svg>